<svg width="26" height="25" viewBox="0 0 26 25" fill="none" xmlns="http://www.w3.org/2000/svg">
<path d="M12.8474 11.0665C19.8079 10.5275 25.6697 12.2934 25.9376 15.0041C26.0736 16.38 24.7401 17.7376 22.4895 18.8114C23.9176 17.9828 24.7249 17.0126 24.6286 16.038C24.3987 13.7122 19.1995 12.225 13.0093 12.7044L13.2521 15.1613L7.32631 12.3193L12.6045 8.6096L12.8474 11.0665ZM13.9806 22.5319C7.02013 23.0709 1.15835 21.305 0.890416 18.5943C0.754425 17.2184 2.08791 15.8608 4.33852 14.787C2.91041 15.6155 2.10312 16.5858 2.20026 17.5686C2.42934 19.8862 7.62852 21.3734 13.8188 20.894L13.5759 18.4371L19.5017 21.2791L14.2235 24.9888L13.9806 22.5319Z" fill="white"/>
<path d="M12.8756 9.91343L2.64577 5.14771V15.4885C2.64577 15.5319 2.65917 15.5745 2.68451 15.6116C2.70986 15.6488 2.74619 15.6791 2.78958 15.6993L12.8756 20.398V9.91343Z" fill="white"/>
<path d="M13.414 9.91341V20.398L23.5 15.6993C23.5434 15.6791 23.5797 15.6487 23.6051 15.6116C23.6304 15.5744 23.6438 15.5319 23.6439 15.4885V5.14771L13.414 9.91341Z" fill="white"/>
<path d="M13.1448 9.50043L23.3746 4.7347L13.2702 0.0273982C13.2315 0.00940281 13.1885 0 13.1448 0C13.1011 0 13.0581 0.00940281 13.0194 0.0273982L2.91496 4.7347L13.1448 9.50043Z" fill="white"/>
</svg>
