<svg width="20" height="21" viewBox="0 0 20 21" fill="none" xmlns="http://www.w3.org/2000/svg">
<path d="M19.1411 16.8634L13.3078 10.5001L19.1411 4.13642C20.1323 3.18982 20.1323 1.65564 19.1411 0.709443C18.149 -0.23675 16.5417 -0.236346 15.5509 0.709847L9.94227 6.82881L4.33365 0.709847C3.3424 -0.235943 1.73559 -0.236346 0.74349 0.709443C-0.24776 1.65604 -0.24776 3.19022 0.74349 4.13642L6.57676 10.5001L0.74349 16.8634C-0.24776 17.8096 -0.24776 19.3438 0.743067 20.2899C1.73474 21.2365 3.34198 21.2365 4.33365 20.2899L9.94227 14.171L15.5509 20.2899C16.543 21.2365 18.1502 21.2365 19.1415 20.2899C20.1323 19.3438 20.1323 17.8096 19.1411 16.8634Z" fill="#EEEEEE"/>
</svg>
