<svg width="38" height="48" viewBox="0 0 38 48" fill="none" xmlns="http://www.w3.org/2000/svg">
<path d="M37.8159 23.9053C37.8159 27.1629 37.7632 30.4299 37.831 33.6875C37.9438 39.4539 35.0315 43.9098 31.3216 45.8943C29.8315 46.69 28.2663 47.1112 26.6483 47.1112C21.5838 47.1206 16.5117 47.2048 11.4472 47.0831C7.63181 46.9895 4.49375 45.005 2.24368 41.0921C1.0622 39.0327 0.497803 36.6924 0.497803 34.1556C0.497803 27.4437 0.497803 20.7413 0.497803 14.0294C0.497803 8.55321 2.64252 4.72456 6.45034 2.23453C8.10591 1.15801 9.90446 0.699322 11.7783 0.689961C16.6923 0.689961 21.6139 0.652517 26.5279 0.708683C30.3433 0.746127 33.5265 2.56216 35.8744 6.38146C37.1838 8.51577 37.8159 10.9684 37.8159 13.6643C37.8159 17.0717 37.8159 20.4885 37.8159 23.9053ZM3.27465 23.9053C3.27465 27.3408 3.27465 30.7669 3.27465 34.2024C3.27465 35.7376 3.56061 37.1792 4.20026 38.4804C5.87841 41.8971 8.41445 43.5634 11.56 43.6289C16.6095 43.7225 21.6666 43.6664 26.7236 43.6476C27.9653 43.6476 29.1693 43.3294 30.2906 42.6647C33.3459 40.8487 35.0541 37.9562 35.0391 33.6126C35.009 26.9663 35.0315 20.32 35.0315 13.6737C35.0315 11.7921 34.6026 10.0697 33.7071 8.55321C31.9763 5.64194 29.5832 4.2097 26.7236 4.17226C21.6816 4.09737 16.6396 4.14417 11.5977 4.15354C10.5215 4.15354 9.48305 4.42501 8.47465 4.89306C5.70533 6.17551 3.13167 9.42379 3.25207 14.2073C3.34238 17.4462 3.27465 20.6757 3.27465 23.9053Z" fill="#eee"/>
<path d="M18.85 34.147C13.9961 34.147 10.083 29.3355 10.0755 23.3444C10.0679 17.447 14.0112 12.6167 18.8349 12.6167C23.6737 12.6074 27.6019 17.4283 27.6095 23.3725C27.6095 29.3074 23.6888 34.1377 18.85 34.147ZM18.85 30.6835C22.1536 30.6835 24.8326 27.3977 24.8251 23.3538C24.8176 19.3473 22.1386 16.0709 18.85 16.0709C15.5464 16.0709 12.8523 19.3379 12.8523 23.3725C12.8598 27.4165 15.5464 30.6928 18.85 30.6835Z" fill="#eee"/>
<path d="M28.6253 9.34058C29.6412 9.34058 30.469 10.4171 30.469 11.737C30.4615 13.0569 29.6261 14.1241 28.6102 14.1147C27.6094 14.1053 26.7891 13.0382 26.7891 11.7464C26.7816 10.4265 27.6094 9.34058 28.6253 9.34058Z" fill="#eee"/>
</svg>
