<svg width="40" height="45" viewBox="0 0 40 45" fill="none" xmlns="http://www.w3.org/2000/svg">
<path d="M19.9581 44.444C9.12849 44.4968 0.223821 34.3548 0.482041 21.9677C0.724611 10.1706 9.41018 0.424688 20.2085 0.556746C30.905 0.688804 39.7549 10.7076 39.4654 23.1122C39.1915 34.8566 30.5764 44.5056 19.9581 44.444ZM2.85297 22.5312C2.93904 33.5624 10.8891 42.0582 20.2789 41.8733C29.3713 41.6884 37.0788 33.3511 37.0788 22.5048C37.0788 11.4735 29.0662 2.94259 19.6451 3.14508C10.5526 3.32996 2.91557 11.6936 2.85297 22.5312Z" fill="#eee"/>
<path d="M16.3997 35.651C16.3997 31.112 16.3997 26.6115 16.3997 22.0647C15.5 22.0647 14.6279 22.0647 13.7351 22.0647C13.7351 20.5235 13.7351 19.0284 13.7351 17.4872C13.8528 17.4795 13.9704 17.464 14.095 17.464C14.7387 17.464 15.3892 17.4486 16.0329 17.4717C16.3167 17.4795 16.4135 17.3947 16.4066 17.071C16.3928 15.8997 16.3928 14.736 16.3997 13.5646C16.4066 12.2468 16.7388 11.0524 17.5832 10.0968C18.3999 9.17201 19.445 8.6711 20.58 8.59404C22.4072 8.47844 24.2412 8.49385 26.0753 8.45532C26.0961 8.45532 26.1168 8.47844 26.1584 8.50156C26.1584 10.0505 26.1584 11.6072 26.1584 13.2024C26.0269 13.2101 25.9023 13.2178 25.7846 13.2178C24.9541 13.2178 24.1236 13.2178 23.2931 13.2178C22.4556 13.2256 21.9642 13.7804 21.9642 14.6975C21.9642 15.5683 21.9642 16.4468 21.9711 17.3176C21.9711 17.3407 21.985 17.3639 22.0057 17.4486C23.3761 17.4486 24.7603 17.4486 26.2137 17.4486C26.0338 19.013 25.8677 20.508 25.6877 22.057C24.435 22.057 23.21 22.057 21.9504 22.057C21.9504 26.6192 21.9504 31.1351 21.9504 35.6664C20.0886 35.651 18.2753 35.651 16.3997 35.651Z" fill="#eee"/>
</svg>
