<svg width="40" height="45" viewBox="0 0 40 45" fill="none" xmlns="http://www.w3.org/2000/svg">
<path d="M39.4232 21.9347C39.4232 33.7422 30.8533 43.3139 20.2798 43.3139C16.9231 43.3139 13.7697 42.3484 11.0261 40.6538L0.42749 44.4443L3.88295 32.9737C2.13984 29.7523 1.13591 25.9739 1.13591 21.9347C1.13591 10.1271 9.70674 0.55542 20.2798 0.55542C30.8541 0.55542 39.4232 10.1271 39.4232 21.9347ZM20.2798 3.96022C11.4044 3.96022 4.18495 12.0236 4.18495 21.9347C4.18495 25.8676 5.32405 29.5099 7.25088 32.4729L5.24 39.1484L11.4252 36.9359C13.9664 38.8139 17.0106 39.9091 20.2802 39.9091C29.1543 39.9091 36.375 31.8467 36.375 21.9356C36.375 12.0246 29.1548 3.96022 20.2798 3.96022ZM29.9468 26.8585C29.8285 26.6405 29.5161 26.5089 29.0473 26.247C28.5776 25.9851 26.27 24.7167 25.841 24.5426C25.4108 24.3681 25.0971 24.2803 24.7847 24.8045C24.4723 25.3292 23.5728 26.5089 23.2985 26.8585C23.0246 27.2091 22.7512 27.253 22.2816 26.9907C21.8127 26.7288 20.301 26.1748 18.5085 24.39C17.1138 23.0012 16.1718 21.2866 15.898 20.7614C15.6246 20.2372 15.8694 19.9538 16.1038 19.6929C16.3152 19.4579 16.5735 19.0809 16.8079 18.7752C17.0431 18.4689 17.1211 18.2509 17.2767 17.9008C17.434 17.5511 17.3555 17.2454 17.2377 16.9825C17.1207 16.7207 16.1813 14.142 15.7905 13.0925C15.3997 12.0441 15.0093 12.2186 14.735 12.2186C14.4616 12.2186 14.1484 12.1748 13.8355 12.1748C13.5227 12.1748 13.014 12.3059 12.5838 12.8302C12.1539 13.3549 10.942 14.6228 10.942 17.201C10.942 19.7797 12.6228 22.2712 12.858 22.6203C13.0924 22.9695 16.1033 28.4332 20.8738 30.5315C25.6447 32.6289 25.6447 31.9291 26.5052 31.8414C27.3649 31.7541 29.2809 30.574 29.6734 29.3509C30.0634 28.1259 30.0634 27.077 29.9468 26.8585Z" fill="#eee"/>
</svg>
