<svg width="25" height="24" viewBox="0 0 25 24" fill="none" xmlns="http://www.w3.org/2000/svg">
<path d="M12.4998 0C5.60747 0 0 5.38317 0 12C0 18.617 5.60747 24 12.4998 24C19.3923 24 25 18.617 25 12C24.9998 5.38317 19.3921 0 12.4998 0ZM12.4998 22.8165C6.28719 22.8165 1.23286 17.9643 1.23286 12C1.23286 6.0359 6.28719 1.18355 12.4998 1.18355C18.7124 1.18355 23.7671 6.0359 23.7671 12C23.7669 17.9643 18.7124 22.8165 12.4998 22.8165Z" fill="#EEEEEE"/>
<path d="M9 9H6V16H9V9Z" fill="#EEEEEE"/>
<path d="M7.5 8C8.32843 8 9 7.55228 9 7C9 6.44772 8.32843 6 7.5 6C6.67157 6 6 6.44772 6 7C6 7.55228 6.67157 8 7.5 8Z" fill="#EEEEEE"/>
<path d="M16.4356 9C15.8418 9 15.3387 9.09783 14.9251 9.29331C14.512 9.48898 14.1038 9.81434 13.7 10.2698V9.15467H11V16H13.8993V12.7126C13.8993 12.0895 14.0087 11.6579 14.2272 11.4171C14.4457 11.1766 14.7303 11.0562 15.0819 11.0562C15.4001 11.0562 15.647 11.1454 15.8229 11.3238C15.9987 11.5021 16.0863 11.806 16.0863 12.2359V16H19V11.6493C19 10.7468 18.773 10.0797 18.3193 9.64775C17.8663 9.21579 17.2379 9 16.4356 9Z" fill="#EEEEEE"/>
</svg>
