<svg width="29" height="23" viewBox="0 0 29 23" fill="none" xmlns="http://www.w3.org/2000/svg">
<path d="M22.6333 18H6.36668C4.98596 18 3.86667 19.1193 3.86667 20.5C3.86667 21.8807 4.98596 23 6.36668 23H22.6333C24.014 23 25.1333 21.8807 25.1333 20.5C25.1333 19.1193 24.014 18 22.6333 18Z" fill="#EEEEEE"/>
<path d="M26.5 9H2.5C1.11929 9 0 10.1193 0 11.5C0 12.8807 1.11929 14 2.5 14H26.5C27.8807 14 29 12.8807 29 11.5C29 10.1193 27.8807 9 26.5 9Z" fill="#EEEEEE"/>
<path d="M22.6333 0L6.36667 0C4.98596 0 3.86667 1.11929 3.86667 2.5C3.86667 3.88071 4.98596 5 6.36667 5H22.6333C24.014 5 25.1333 3.88071 25.1333 2.5C25.1333 1.11929 24.014 0 22.6333 0Z" fill="#EEEEEE"/>
</svg>
