<svg width="18" height="13" viewBox="0 0 18 13" fill="none" xmlns="http://www.w3.org/2000/svg">
<path d="M2.71585 11.8268V8.25396C1.75546 7.99765 1.22429 7.32362 1.03759 7.03846L0.240414 7.05442C0.176615 7.05558 0.115466 7.03151 0.0703926 6.98749C0.0253189 6.94346 3.26855e-06 6.88308 3.36537e-06 6.8196L3.36537e-06 2.07699C0.000114291 2.01358 0.0254794 1.95229 0.0705411 1.90655C0.115603 1.86081 0.176688 1.83435 0.240414 1.83296L2.53375 1.78705L6.8473 0.302531C7.10426 0.213641 7.37676 0.18253 7.64495 0.211465C7.91314 0.240401 8.17027 0.328654 8.39759 0.469795L11.0891 2.13426C11.1171 2.15002 11.1415 2.17132 11.1609 2.19688C11.1802 2.22244 11.1941 2.25174 11.2017 2.28301C11.2092 2.31427 11.2103 2.34687 11.2049 2.37883C11.1995 2.41079 11.1876 2.44146 11.1701 2.469C11.1525 2.49653 11.1296 2.52036 11.1028 2.53905C11.0759 2.55774 11.0456 2.5709 11.0138 2.57776C10.9819 2.58461 10.9491 2.585 10.9174 2.57892C10.8856 2.57283 10.8555 2.56039 10.829 2.54234L8.13746 0.877874C7.97013 0.773948 7.78084 0.708989 7.58341 0.687735C7.38597 0.666482 7.18537 0.689469 6.99624 0.755023L2.64662 2.25195C2.62247 2.2601 2.59728 2.26454 2.57194 2.26513L0.480825 2.307V6.57075L1.17478 6.55686C1.2189 6.55593 1.26217 6.56712 1.29984 6.5892C1.33752 6.61128 1.36814 6.64339 1.38834 6.682C1.68978 7.18373 2.15898 7.56226 2.71585 7.75298L2.71585 6.59238C2.29125 6.43389 1.81966 6.14191 1.52932 5.59498C1.51113 5.56127 1.50163 5.52347 1.50163 5.4849C1.50165 5.43135 1.51969 5.37898 1.55289 5.33617C1.58608 5.29335 1.63251 5.26255 1.68476 5.24867C1.73701 5.2348 1.79207 5.23865 1.84116 5.25961C1.89025 5.28058 1.93054 5.31745 1.95559 5.36434C2.44145 6.27892 3.6477 6.29526 3.65441 6.29555C5.26932 6.26321 5.73503 5.13086 5.75223 5.08459C5.76966 5.03898 5.8005 4.99943 5.84066 4.97119C5.88082 4.94295 5.92841 4.92735 5.97712 4.92646L8.36067 4.87873C8.54071 4.87071 8.71189 4.79301 8.83766 4.66222C8.96343 4.53143 9.03384 4.35791 9.03384 4.1787C9.03384 3.9995 8.96343 3.8288 8.83766 3.70304C8.71189 3.57729 8.54071 3.50645 8.36067 3.50563L5.51686 3.56257C5.48441 3.56457 5.45203 3.56002 5.42166 3.54921C5.39128 3.53839 5.36354 3.52153 5.34011 3.49963C5.31667 3.47774 5.29802 3.45126 5.28528 3.42179C5.27255 3.39233 5.26598 3.36048 5.26598 3.32817C5.26598 3.29586 5.27255 3.26375 5.28528 3.23377C5.29802 3.2038 5.31667 3.17657 5.34011 3.15374C5.36354 3.1309 5.39128 3.11293 5.42166 3.10089C5.45203 3.08886 5.48441 3.08302 5.51686 3.08372L8.36067 3.02678C8.66745 3.02642 8.95971 3.14589 9.17462 3.35951C9.38953 3.57313 9.50992 3.86385 9.50992 4.16917C9.50992 4.47449 9.38953 4.77003 9.17462 4.99226C8.95971 5.21449 8.66745 5.34566 8.36067 5.35758L6.12942 5.40226C5.923 5.78588 5.24834 6.7429 3.64938 6.77492C3.49721 6.7714 3.34589 6.75488 3.19709 6.72552L3.19709 10.3288L16.9899 10.0527V8.47666L4.03412 8.73606C3.97204 8.73472 3.91336 8.70954 3.87036 8.66579C3.82735 8.62203 3.80334 8.56308 3.80334 8.50125C3.80334 8.43943 3.82735 8.37952 3.87036 8.33404C3.91336 8.28856 3.97204 8.26103 4.03412 8.25721L16.9899 7.99781V3.9094C16.9896 3.75645 16.9285 3.61105 16.8198 3.50508C16.7111 3.3991 16.5637 3.34119 16.41 3.34405L10.036 3.47167C9.97391 3.47033 9.91524 3.44516 9.87223 3.4014C9.82922 3.35764 9.80521 3.29869 9.80521 3.23687C9.80521 3.17504 9.82922 3.11513 9.87223 3.06965C9.91524 3.02417 9.97391 2.99664 10.036 2.99282L16.41 2.8652C16.6914 2.85979 16.9611 2.96569 17.1601 3.15966C17.359 3.35364 17.4709 3.61982 17.4711 3.89977V11.5313C17.4709 11.8113 17.359 12.082 17.1601 12.2839C16.9611 12.4858 16.6914 12.6025 16.41 12.6084L3.77692 12.8613C3.49561 12.8666 3.22592 12.7607 3.027 12.5668C2.82808 12.3728 2.71618 12.1067 2.71585 11.8268ZM16.41 12.1296C16.5637 12.1263 16.7111 12.0624 16.8198 11.9521C16.9285 11.8418 16.9896 11.6939 16.9899 11.541V10.5315L3.19709 10.8077V11.8171C3.19731 11.9701 3.25847 12.1155 3.36716 12.2215C3.47585 12.3274 3.62321 12.3853 3.77692 12.3825L16.41 12.1296Z" fill="white"/>
<path d="M5.89612 6.88403C5.89612 6.82047 5.92149 6.75901 5.96666 6.71317C6.01182 6.66733 6.07308 6.64085 6.13695 6.63957L9.27236 6.5768C9.33443 6.57813 9.39311 6.60331 9.43611 6.64707C9.47912 6.69083 9.50314 6.74978 9.50314 6.8116C9.50314 6.87342 9.47912 6.93334 9.43611 6.97882C9.39311 7.0243 9.33443 7.05182 9.27236 7.05565L6.13695 7.11842C6.10534 7.11911 6.07403 7.11359 6.04482 7.10218C6.0156 7.09077 5.98905 7.07369 5.96668 7.05192C5.94431 7.03014 5.92657 7.00411 5.91446 6.9753C5.90235 6.94649 5.89612 6.91548 5.89612 6.88403Z" fill="white"/>
<path d="M10.3341 7.1455C10.3188 7.14281 10.3039 7.13849 10.2897 7.13262C10.2748 7.12731 10.2607 7.12015 10.2477 7.11133C10.2346 7.10302 10.2225 7.09333 10.2116 7.08241C10.1781 7.04975 10.1553 7.00779 10.146 6.96178C10.1366 6.91578 10.1412 6.86778 10.1592 6.82381C10.1771 6.77985 10.2075 6.74186 10.2467 6.71463C10.2859 6.6874 10.3321 6.67214 10.3794 6.67075C10.3954 6.67027 10.4113 6.67149 10.4269 6.6744C10.4423 6.67719 10.4575 6.68135 10.4722 6.68685C10.4867 6.69275 10.5008 6.69987 10.5141 6.70814C10.5271 6.71675 10.5391 6.72657 10.5502 6.73747C10.5726 6.75921 10.5903 6.78521 10.6024 6.81398C10.6145 6.84275 10.6207 6.87373 10.6207 6.90514C10.6207 6.93655 10.6145 6.96778 10.6024 6.99704C10.5903 7.02629 10.5726 7.053 10.5502 7.07563C10.5394 7.08708 10.5273 7.09727 10.5141 7.106C10.501 7.11511 10.4869 7.12281 10.4722 7.12896C10.4576 7.13536 10.4424 7.14028 10.4269 7.14365C10.4113 7.14732 10.3954 7.14932 10.3794 7.14961C10.3642 7.14976 10.349 7.14839 10.3341 7.1455V7.1455Z" fill="white"/>
<path d="M11.2717 7.10689C11.2269 7.06282 11.2017 7.00255 11.2017 6.93921C11.2017 6.87586 11.2269 6.81459 11.2717 6.76872C11.283 6.75726 11.2954 6.74695 11.3087 6.73793C11.3218 6.72887 11.3359 6.72118 11.3506 6.71496C11.365 6.70878 11.3799 6.704 11.3951 6.70071C11.4263 6.69396 11.4583 6.69332 11.4895 6.69882C11.505 6.70161 11.5201 6.70578 11.5348 6.71127C11.5494 6.71717 11.5634 6.72429 11.5768 6.73256C11.5898 6.74127 11.602 6.75108 11.6133 6.76189C11.6356 6.78362 11.6533 6.80962 11.6654 6.83839C11.6775 6.86716 11.6838 6.89814 11.6838 6.92955C11.6838 6.96097 11.6775 6.9922 11.6654 7.02145C11.6533 7.05071 11.6356 7.07742 11.6133 7.10005C11.5908 7.1226 11.5643 7.14071 11.5352 7.15338C11.5206 7.15978 11.5054 7.1647 11.4899 7.16806C11.4745 7.17169 11.4587 7.17368 11.4429 7.17401C11.3788 7.17507 11.3173 7.15096 11.2717 7.10689V7.10689Z" fill="white"/>
<path d="M12.4137 7.18172C12.3989 7.17644 12.3848 7.16929 12.3718 7.16044C12.3583 7.15236 12.3459 7.14266 12.3348 7.13154C12.29 7.08747 12.2648 7.0272 12.2648 6.96386C12.2648 6.90051 12.29 6.83923 12.3348 6.79337C12.3572 6.7706 12.3837 6.75238 12.413 6.73975C12.4422 6.72713 12.4735 6.72035 12.5052 6.71983C12.521 6.71938 12.5367 6.72061 12.5522 6.72348C12.5675 6.72616 12.5826 6.73033 12.5971 6.73594C12.6117 6.74166 12.6258 6.74879 12.639 6.75722C12.6522 6.76582 12.6646 6.77564 12.676 6.78654C12.6983 6.80828 12.716 6.83428 12.7281 6.86305C12.7402 6.89182 12.7465 6.9228 12.7465 6.95421C12.7465 6.98563 12.7402 7.01685 12.7281 7.04611C12.716 7.07537 12.6983 7.10207 12.676 7.12471C12.6648 7.13617 12.6524 7.14636 12.639 7.15509C12.626 7.16437 12.6119 7.17208 12.5971 7.17805C12.5827 7.18456 12.5676 7.18948 12.5522 7.19273C12.5367 7.19635 12.521 7.19835 12.5052 7.19868C12.4894 7.199 12.4736 7.19764 12.4582 7.19461C12.4429 7.19201 12.428 7.18769 12.4137 7.18172V7.18172Z" fill="white"/>
</svg>
