<svg width="18" height="22" viewBox="0 0 18 22" fill="none" xmlns="http://www.w3.org/2000/svg">
<path d="M8 10V21.2941C8 21.6845 8.447 22 9 22C9.553 22 10 21.6845 10 21.2941V10H8Z" fill="#324D5B"/>
<path d="M9 0C13.9707 0 18 3.13444 18 6.99965C18 10.8649 13.9707 14 9 14C4.0302 14.0007 0 10.8649 0 6.99965C0 3.13444 4.0302 0 9 0V0Z" fill="#E2574C"/>
<path d="M11.5 3C12.8808 3 14 4.11852 14 5.49958C14 6.88065 12.8808 8 11.5 8C10.12 8 9 6.88065 9 5.49958C9 4.11935 10.12 3 11.5 3V3Z" fill="#E87970"/>
<path d="M10.0302 13.3168C4.99595 13.3168 0.911837 10.2532 0.911837 6.47709C0.911837 4.76271 1.75893 3.20014 3.14857 2C1.22277 3.25484 0 5.09916 0 7.16093C0 10.9371 4.08321 14 9.11837 14C11.8685 14 14.3277 13.0823 16 11.6387C14.3997 12.6822 12.3162 13.3168 10.0302 13.3168Z" fill="#CB4E44"/>
</svg>
