<svg width="57" height="46" viewBox="0 0 57 46" fill="none" xmlns="http://www.w3.org/2000/svg">
<path d="M12.5122 16.7273C19.3918 16.7273 24.9688 23.2803 24.9688 31.3636C24.9688 39.447 19.3918 46 12.5122 46C5.6326 46 0.0556098 39.447 0.0556098 31.3636L0 29.2727C0 13.1058 11.154 0 24.9132 0V8.36364C20.16 8.36364 15.6912 10.5386 12.3301 14.4878C11.6832 15.2481 11.0927 16.057 10.5601 16.9067C11.1961 16.7891 11.848 16.7273 12.5122 16.7273ZM44.5434 16.7273C51.4229 16.7273 57 23.2803 57 31.3636C57 39.447 51.4229 46 44.5434 46C37.6639 46 32.0868 39.447 32.0868 31.3636L32.0312 29.2727C32.0312 13.1058 43.1851 0 56.9444 0V8.36364C52.1913 8.36364 47.7223 10.5386 44.3613 14.4878C43.7143 15.2481 43.1238 16.057 42.5912 16.9067C43.2272 16.7891 43.8791 16.7273 44.5434 16.7273Z" fill="#6C6A6A"/>
</svg>
